<svg xmlns="http://www.w3.org/2000/svg" width="1920" height="77" viewBox="0 0 1920 77"><defs><style>.a,.h{fill:#fff;}.a,.g{stroke:#707070;}.b,.c,.e,.f,.g{fill:#006837;}.b{opacity:0.18;}.c{opacity:0.19;}.d,.j{fill:none;}.d{stroke:#006837;stroke-miterlimit:10;stroke-width:2px;}.e,.f{font-size:49px;}.e{font-family:Roboto-Medium, Roboto;font-weight:500;}.f{font-family:Roboto-Light, Roboto;font-weight:300;}.h{font-size:30px;font-family:Roboto-Regular, Roboto;}.i{stroke:none;}</style></defs><g class="a"><rect class="i" width="1920" height="77"/><rect class="j" x="0.5" y="0.5" width="1919" height="76"/></g><g transform="translate(10.726 24.8)"><g transform="translate(0 -18.57)"><path class="b" d="M333.26,27.3l5.053,24.782,11.618,3.947-9.545-25.015L333.26,27.3" transform="translate(-168.016 -4.556)"/><path class="c" d="M292.31,49.395,298.27,27.3h0l6.991,4.249h0L304.23,55.627l-11.92-6.233" transform="translate(-147.37 -4.556)"/><path class="d" d="M280.3,31.811l-9.5,22.958,10.864-5.509L270.8,54.769l10-24.019,6.823-3.58,6.991,4.244,7.155-4.18,7.125,3.714,9.545,25.015-11.618-3.947L293.584,55.5l-11.92-6.238,11.92,6.238,13.239-3.481" transform="translate(-136.526 -4.49)"/><text class="e" transform="translate(0 51)"><tspan x="0" y="0">better</tspan></text><text class="f" transform="translate(181.548 51.54)"><tspan x="0" y="0">aps</tspan></text></g></g><g class="g" transform="translate(1856 17)"><circle class="i" cx="22" cy="22" r="22"/><circle class="j" cx="22" cy="22" r="21.5"/></g><text class="h" transform="translate(1869 51)"><tspan x="0" y="0">P</tspan></text></svg>